<?xml version="1.0" encoding="UTF-8" standalone="no"?>
<svg
   xmlns:dc="http://purl.org/dc/elements/1.1/"
   xmlns:cc="http://creativecommons.org/ns#"
   xmlns:rdf="http://www.w3.org/1999/02/22-rdf-syntax-ns#"
   xmlns:svg="http://www.w3.org/2000/svg"
   xmlns="http://www.w3.org/2000/svg"
   xmlns:xlink="http://www.w3.org/1999/xlink"
   xmlns:sodipodi="http://sodipodi.sourceforge.net/DTD/sodipodi-0.dtd"
   xmlns:inkscape="http://www.inkscape.org/namespaces/inkscape"
   enable-background="new 0 0 128 128"
   viewBox="0 0 128 128"
   version="1.1"
   id="svg57"
   sodipodi:docname="Erha.svg"
   inkscape:version="0.92.4 (5da689c313, 2019-01-14)">
  <metadata
     id="metadata61">
    <rdf:RDF>
      <cc:Work
         rdf:about="">
        <dc:format>image/svg+xml</dc:format>
        <dc:type
           rdf:resource="http://purl.org/dc/dcmitype/StillImage" />
        <dc:title></dc:title>
      </cc:Work>
    </rdf:RDF>
  </metadata>
  <sodipodi:namedview
     pagecolor="#ffffff"
     bordercolor="#666666"
     borderopacity="1"
     objecttolerance="10"
     gridtolerance="10"
     guidetolerance="10"
     inkscape:pageopacity="0"
     inkscape:pageshadow="2"
     inkscape:window-width="1920"
     inkscape:window-height="1001"
     id="namedview59"
     showgrid="false"
     inkscape:zoom="1.84375"
     inkscape:cx="-72.409906"
     inkscape:cy="122.53521"
     inkscape:window-x="-9"
     inkscape:window-y="-9"
     inkscape:window-maximized="1"
     inkscape:current-layer="svg57" />
  <path
     d="m 53.64592,6.4486682 c 1.245104,0.7713884 2.373487,2.3795353 3.280367,4.8229478 l 4.8686,12.667236 c 0.0029,0.01237 0.01055,0.0171 0.01819,0.02184 l 0.0076,0.0048 c 5.816308,1.531585 19.278454,9.131948 19.278454,9.131948 7.097405,4.428821 12.457531,8.880675 16.387092,13.355308 l 0.0072,0.0048 c 0.0072,0.0048 0.01528,0.0095 0.02768,0.0066 l 13.510037,-1.280977 c 2.59164,-0.275954 4.534,0.01834 5.7791,0.78973 2.07008,1.282493 2.22888,3.875536 0.30702,7.335933 l -11.65244,23.107923 -0.004,0.0076 c -1.2156,5.272137 -3.50266,10.567542 -6.442078,15.892187 -0.96525,2.086928 -2.073464,4.148701 -3.327555,6.172949 C 81.928954,120.70261 48.784499,124.5336 31.100976,113.57799 13.043158,102.3905 2.0848317,71.246746 15.85151,49.025852 c 1.197309,-1.932584 2.485535,-3.755987 3.854134,-5.487315 3.563706,-5.22328 7.405154,-9.819953 11.732669,-13.375547 l 0.0048,-0.0076 15.502325,-20.7227716 c 2.237955,-3.2539952 4.63047,-4.2664035 6.70055,-2.9839113 M 55.051487,4.1799839 C 53.783437,3.3943975 49.286184,1.3375513 44.774241,7.8866415 L 29.4965,28.315157 c -4.061496,3.382144 -7.972026,7.851454 -11.935418,13.65162 -1.433027,1.818259 -2.77331,3.725688 -3.970618,5.658272 C 6.8088719,58.571264 5.1729953,72.250908 8.9729666,86.148226 12.456826,98.866634 20.208211,109.96898 29.703079,115.85141 c 19.111955,11.84058 53.820726,7.36143 68.264145,-15.951789 1.273024,-2.054802 2.433306,-4.200601 3.438226,-6.368649 3.24669,-5.90593 5.40133,-11.209386 6.58189,-16.186109 L 119.4763,54.569056 c 3.85211,-6.968451 0.0109,-10.067063 -1.25718,-10.852649 -1.80273,-1.116856 -4.31698,-1.51177 -7.46748,-1.169798 L 98.588891,43.70036 C 94.486145,39.266415 89.090315,34.940432 82.515245,30.845788 l -0.0076,-0.0048 -0.09166,-0.05679 C 81.889954,30.490108 70.314225,23.973886 63.822886,21.791542 L 59.422838,10.313091 C 58.334945,7.3769937 56.861821,5.3015721 55.051457,4.179983 Z"
     id="path2"
     inkscape:connector-curvature="0"
     style="fill:#d3914f;stroke-width:0.89858401" />
  <linearGradient
     id="g"
     x1="64.131"
     x2="64.131"
     y1="18.892"
     y2="120.48"
     gradientUnits="userSpaceOnUse"
     gradientTransform="matrix(0.7638671,0.47324436,-0.47324436,0.7638671,39.578337,-9.285605)">
    <stop
       stop-color="#FFC559"
       offset="0"
       id="stop4" />
    <stop
       stop-color="#D47500"
       offset=".9988"
       id="stop6" />
  </linearGradient>
  <path
     d="m 105.56274,76.49811 0.004,-0.0076 11.65243,-23.107923 c 3.08903,-5.549073 0.81375,-8.871974 -6.08138,-8.133302 l -13.510038,1.280977 c -0.01528,-0.0095 -0.02768,-0.0066 -0.03531,-0.01129 C 93.667615,42.0367 88.299849,37.580114 81.20535,33.163664 c 0,0 -13.469785,-7.605096 -19.286093,-9.13668 -0.01528,-0.0095 -0.01819,-0.02184 -0.02583,-0.02657 L 57.02559,11.333138 C 54.624457,4.8350824 50.62839,4.2726476 47.035209,9.5093786 L 31.532883,30.23215 l -0.0048,0.0076 C 26.341393,34.49981 21.848282,40.267772 17.697261,46.797344 3.7116337,68.808596 9.750773,98.627734 31.775889,112.50568 l -0.01893,0.0306 c 22.254021,13.71321 51.61747,6.12328 65.141533,-16.269063 4.002978,-6.631858 7.166968,-13.223266 8.664238,-19.769057 z"
     id="path9"
     style="fill:url(#g);stroke-width:0.89858401"
     inkscape:connector-curvature="0" />
  <line
     x1="60.269512"
     x2="60.269512"
     y1="20.44631"
     y2="20.44631"
     id="line11"
     style="fill:#e59242;stroke-width:0.89858401" />
  <defs
     id="defs14">
    <path
       id="f"
       d="M116.26,69.08c0,29.08-29.11,52.13-52.26,52.13c-23.64,0-52.26-23.04-52.26-52.13S30.59,16.42,64,16.42 S116.26,40,116.26,69.08z" />
  </defs>
  <clipPath
     id="e">
    <use
       xlink:href="#f"
       id="use16" />
  </clipPath>
  <linearGradient
     id="d"
     x1="64"
     x2="64"
     y1="75.89"
     y2="120.59"
     gradientUnits="userSpaceOnUse">
    <stop
       stop-color="#FFF8E1"
       offset=".1582"
       id="stop19" />
    <stop
       stop-color="#D8D3BF"
       offset=".7074"
       id="stop21" />
    <stop
       stop-color="#C9C4B2"
       offset="1"
       id="stop23" />
  </linearGradient>
  <path
     d="m 108.97,61.01 c -5.3,-1.14 -14.41,-0.19 -19.02,14.62 -1,3.22 -4.16,7.06 -7.34,7.14 -6.3,0.15 -7.57,-7.58 -18.8,-7.58 -11.23,0 -12.05,7.72 -18.35,7.58 C 42.29,82.7 39.03,78.85 38.02,75.63 33.41,60.82 24.3,59.87 19,61.01 c -22.7,4.87 -4.91,38.57 4,48.1 21.29,22.75 60.14,23.43 82.07,0 8.91,-9.53 26.6,-43.23 3.9,-48.1 z"
     clip-path="url(#e)"
     id="path26"
     style="fill:url(#d)"
     inkscape:connector-curvature="0"
     transform="matrix(0.7638671,0.47324436,-0.47324436,0.7638671,39.578337,-9.2856047)" />
  <ellipse
     cx="67.842789"
     cy="25.626678"
     rx="5.840796"
     ry="6.7393799"
     id="ellipse28"
     transform="rotate(31.77977)"
     style="stroke-width:0.89858401" />
  <ellipse
     cx="104.68473"
     cy="25.626678"
     rx="5.840796"
     ry="6.7393799"
     id="ellipse30"
     transform="rotate(31.77977)"
     style="stroke-width:0.89858401" />
  <linearGradient
     id="c"
     x1="64"
     x2="64"
     y1="93.235"
     y2="75.832"
     gradientUnits="userSpaceOnUse"
     gradientTransform="matrix(0.7638671,0.47324436,-0.47324436,0.7638671,39.578337,-9.285605)">
    <stop
       offset="0"
       id="stop32" />
    <stop
       stop-color="#262626"
       offset=".3547"
       id="stop34" />
    <stop
       stop-color="#575757"
       offset=".8372"
       id="stop36" />
  </linearGradient>
  <path
     d="M 44.405878,92.614319 C 40.7164,90.328549 37.513893,84.475638 39.629295,81.061151 l 0.104114,-0.16805 c 2.115402,-3.414486 7.731967,-4.955847 11.421445,-2.670077 l 2.681173,1.661088 c 3.689478,2.28577 4.810222,8.001146 2.69482,11.415632 l -0.05206,0.08403 c -2.107765,3.419218 -8.375795,3.521052 -12.072912,1.230549 z"
     id="path39"
     style="fill:url(#c);stroke-width:0.89858401"
     inkscape:connector-curvature="0" />
  <path
     d="m 66.960891,102.94114 c 0.01353,-0.19246 -0.108277,-0.40534 -0.453843,-0.59829 -0.961393,-0.56391 -1.99118,-0.11313 -2.880821,0.1285 -0.81068,0.21655 -1.59446,0.49206 -2.402234,0.72098 -2.141695,0.60756 -4.37963,0.7221 -6.718202,0.43604 -5.040228,-0.61738 -6.502552,-2.369 -6.502552,-2.369 -0.490956,-0.58957 -1.1253,-1.06713 -1.597327,-1.68726 -1.21606,-1.620185 -1.927143,-3.202352 -3.773875,-4.367613 -1.166891,-0.744074 -2.521253,-1.20261 -3.857177,-1.332606 -1.388313,-0.130741 -2.764256,-0.264388 -4.098196,-0.858262 0,0 -2.186054,-0.498123 -4.978371,-4.743871 -1.066526,-1.622678 -1.919092,-3.334781 -2.375782,-5.139884 -0.443986,-1.723238 -0.544152,-3.455449 -1.102384,-5.164902 -0.08395,-0.273989 -0.187903,-0.549807 -0.372644,-0.780538 -0.252744,-0.325714 -0.767108,-0.570387 -1.137908,-0.398429 -0.370799,0.171959 -0.397524,0.641648 -0.41404,1.04367 -0.275052,5.136036 -3.280588,21.487133 10.407911,29.967675 13.688498,8.48054 26.853054,-1.43925 31.466204,-4.0568 0.369719,-0.20434 0.76966,-0.47452 0.791241,-0.79941 z"
     id="path41"
     inkscape:connector-curvature="0"
     style="stroke-width:0.89858401" />
  <defs
     id="defs44">
    <path
       id="b"
       d="m74 102.63c0 5.01 1 17.94-10 17.94s-11-12.93-11-17.94v-1.56c0-5.01 4.06-9.07 9.07-9.07h2.86c5.01 0 9.07 4.06 9.07 9.07v1.56z" />
  </defs>
  <clipPath
     id="a">
    <use
       xlink:href="#b"
       id="use46" />
  </clipPath>
  <path
     d="m 46.56,111.09 c 0,-5.47 8.03,-11.34 17.92,-11.34 9.89,0 17.92,5.87 17.92,11.34 0,5.47 -8.03,9.91 -17.92,9.91 -9.89,0 -17.92,-4.44 -17.92,-9.91 z"
     clip-path="url(#a)"
     id="path49"
     inkscape:connector-curvature="0"
     transform="matrix(0.76194368,0.47633497,-0.47633497,0.76194368,40.038719,-9.2795201)"
     style="fill:#ff8282" />
  <g
     id="g55"
     transform="matrix(0.7638671,0.47324436,-0.47324436,0.7638671,39.578337,-9.2856047)"
     style="fill:#fff5b5">
    <path
       d="M 25.51,11.99 34,18.9 c 1.16,0.94 0.93,2.78 -0.43,3.4 l -8.84,4.03 c -1.36,0.62 -2.9,-0.4 -2.85,-1.9 l 0.35,-10.94 c 0.05,-1.66 1.98,-2.55 3.28,-1.5 z"
       id="path51"
       inkscape:connector-curvature="0" />
    <path
       d="M 102.49,11.99 94,18.9 c -1.16,0.94 -0.93,2.78 0.43,3.4 l 8.84,4.03 c 1.36,0.62 2.9,-0.4 2.85,-1.9 l -0.35,-10.94 c -0.05,-1.66 -1.98,-2.55 -3.28,-1.5 z"
       id="path53"
       inkscape:connector-curvature="0" />
  </g>
</svg>
